name C:\Users\Nicos\Documents\OpenSimProjects\SprintingProject\Study1\PredictiveResults\IC_pred_Sprinting_optimum_27-October-2023__11-55-39___IKTD_Minus_2_p02_maxVel_01.mot
datacolumns 38
datarows 15
range 0.21313955 0.22714438
endheader
                time	/jointset/ground_pelvis/pelvis_tilt/value	/jointset/ground_pelvis/pelvis_list/value	/jointset/ground_pelvis/pelvis_rotation/value	/jointset/ground_pelvis/pelvis_tx/value	/jointset/ground_pelvis/pelvis_ty/value	/jointset/ground_pelvis/pelvis_tz/value	/jointset/hip_r/hip_flexion_r/value	/jointset/hip_r/hip_adduction_r/value	/jointset/hip_r/hip_rotation_r/value	/jointset/knee_r/knee_angle_r/value	/jointset/ankle_r/ankle_angle_r/value	/jointset/subtalar_r/subtalar_angle_r/value	/jointset/mtp_r/mtp_angle_r/value	/jointset/hip_l/hip_flexion_l/value	/jointset/hip_l/hip_adduction_l/value	/jointset/hip_l/hip_rotation_l/value	/jointset/knee_l/knee_angle_l/value	/jointset/ankle_l/ankle_angle_l/value	/jointset/subtalar_l/subtalar_angle_l/value	/jointset/mtp_l/mtp_angle_l/value	/jointset/back/lumbar_extension/value	/jointset/back/lumbar_bending/value	/jointset/back/lumbar_rotation/value	/jointset/acromial_r/arm_flex_r/value	/jointset/acromial_r/arm_add_r/value	/jointset/acromial_r/arm_rot_r/value	/jointset/elbow_r/elbow_flex_r/value	/jointset/radioulnar_r/pro_sup_r/value	/jointset/radius_hand_r/wrist_flex_r/value	/jointset/radius_hand_r/wrist_dev_r/value	/jointset/acromial_l/arm_flex_l/value	/jointset/acromial_l/arm_add_l/value	/jointset/acromial_l/arm_rot_l/value	/jointset/elbow_l/elbow_flex_l/value	/jointset/radioulnar_l/pro_sup_l/value	/jointset/radius_hand_l/wrist_flex_l/value	/jointset/radius_hand_l/wrist_dev_l/value	
          0.21313955	         -4.18451442	          6.66130256	         -8.98820058	          1.85590444	          0.99600358	          0.31423973	          2.12901808	        -13.89691577	          8.96980680	        -88.09702372	        -23.35140483	        -14.50782494	        -10.46544581	         59.67426673	         -4.85365626	         -3.01113929	        -38.11308534	        -21.02221235	        -27.10359579	          7.51533607	        -20.79988981	        -10.86572987	         10.20596149	         58.55531432	        -18.21827339	         -8.16821887	         97.94178700	         88.87666337	        -16.99407425	          6.22255259	        -56.92083297	        -12.54565137	         -8.42196311	         68.37609189	         55.35207244	        -23.55769205	          6.22518335	
          0.21462162	         -4.21301953	          6.62045866	         -8.62327382	          1.87342389	          0.99663041	          0.31420739	          2.57253953	        -13.73685283	          8.76741423	        -89.00642770	        -22.98005480	        -14.60717893	        -10.46363617	         59.00740100	         -4.44678188	         -2.59321627	        -37.23150757	        -21.23817863	        -27.54534105	          6.61799374	        -20.85683541	        -10.90089451	         10.13752407	         56.66871283	        -18.87794810	         -8.89798416	         97.65088292	         88.98466778	        -17.19414980	          6.17685497	        -56.27342410	        -13.20620101	         -9.11202889	         69.25744398	         55.87738022	        -23.76479940	          6.17948610	
          0.21462162	         -4.21301953	          6.62045866	         -8.62327382	          1.87342389	          0.99663041	          0.31420739	          2.57253953	        -13.73685283	          8.76741423	        -89.00642770	        -22.98005480	        -14.60717893	        -10.46363617	         59.00740100	         -4.44678188	         -2.59321627	        -37.23150757	        -21.23817863	        -27.54534105	          6.61799374	        -20.85683541	        -10.90089451	         10.13752407	         56.66871283	        -18.87794810	         -8.89798416	         97.65088292	         88.98466778	        -17.19414980	          6.17685497	        -56.27342410	        -13.20620101	         -9.11202889	         69.25744398	         55.87738022	        -23.76479940	          6.17948610	
          0.21526884	         -4.22712252	          6.60098032	         -8.46217731	          1.88108110	          0.99689543	          0.31418875	          2.77185886	        -13.66665511	          8.67705265	        -89.40299555	        -22.81632322	        -14.65107846	        -10.46368971	         58.71600526	         -4.27097009	         -2.40735416	        -36.85678450	        -21.32984152	        -27.74151114	          6.22490454	        -20.87867278	        -10.91295634	         10.10801303	         55.83538147	        -19.16517157	         -9.20563282	         97.50195252	         89.02799422	        -17.28124138	          6.15689862	        -55.98384066	        -13.49466326	         -9.41436992	         69.65898734	         56.11115219	        -23.85281110	          6.15952981	
          0.21731380	         -4.27829977	          6.53341496	         -7.94786090	          1.90529704	          0.99769563	          0.31411302	          3.42553942	        -13.44462195	          8.38569845	        -90.65450551	        -22.29426820	        -14.79100036	        -10.46719001	         57.79423667	         -3.72507272	         -1.81158812	        -35.71171251	        -21.61377037	        -28.37249052	          4.99630500	        -20.93548644	        -10.93858793	         10.01634223	         53.17111755	        -20.06621928	        -10.12146902	         96.94516428	         89.15330248	        -17.55400474	          6.09384417	        -55.03950119	        -14.40611393	        -10.36279643	         70.99647211	         56.86754603	        -24.12037382	          6.09647544	
          0.21879587	         -4.32221736	          6.47886240	         -7.57136026	          1.92286603	          0.99823834	          0.31404260	          3.92361710	        -13.28387458	          8.17068813	        -91.56059715	        -21.91159055	        -14.89318862	        -10.47066377	         57.12533413	         -3.34046603	         -1.37599814	        -34.91663113	        -21.81786569	        -28.83633797	          4.13656292	        -20.96445035	        -10.94524093	          9.95129639	         51.21687162	        -20.71087507	        -10.72010248	         96.46195185	         89.23562694	        -17.74822532	          6.04814643	        -54.32114632	        -15.06664361	        -11.03191318	         72.01802414	         57.43258612	        -24.30357508	          6.05077781	
          0.21879587	         -4.32221736	          6.47886240	         -7.57136026	          1.92286603	          0.99823834	          0.31404260	          3.92361710	        -13.28387458	          8.17068813	        -91.56059715	        -21.91159055	        -14.89318862	        -10.47066377	         57.12533413	         -3.34046603	         -1.37599814	        -34.91663113	        -21.81786569	        -28.83633797	          4.13656292	        -20.96445035	        -10.94524093	          9.95129639	         51.21687162	        -20.71087507	        -10.72010248	         96.46195185	         89.23562694	        -17.74822532	          6.04814643	        -54.32114632	        -15.06664361	        -11.03191318	         72.01802414	         57.43258612	        -24.30357508	          6.05077781	
          0.21944309	         -4.34333796	          6.45358306	         -7.40627185	          1.93054269	          0.99846503	          0.31400786	          4.14794342	        -13.21380094	          8.07619937	        -91.95614826	        -21.74334331	        -14.93796028	        -10.47176233	         56.83304332	         -3.17590277	         -1.18586650	        -34.57803412	        -21.90744879	        -29.03947696	          3.77380240	        -20.97371556	        -10.94495488	          9.92322789	         50.35896468	        -20.98957139	        -10.96148066	         96.23056723	         89.26993620	        -17.83181741	          6.02819007	        -53.99680631	        -15.35511263	        -11.31607358	         72.47417342	         57.68382944	        -24.38055955	          6.03082173	
          0.22148805	         -4.41891551	          6.36784931	         -6.88333013	          1.95481291	          0.99913851	          0.31388190	          4.88606906	        -12.99311034	          7.77701309	        -93.20563488	        -21.20580394	        -15.07942959	        -10.47399895	         55.90937845	         -2.67152699	         -0.58984555	        -33.54015003	        -22.19574600	        -29.67750924	          2.69787650	        -20.98820250	        -10.93066196	          9.83559046	         47.63747544	        -21.85717371	        -11.62987270	         95.42100705	         89.37438511	        -18.08981418	          5.96513563	        -52.91826769	        -16.26653911	        -12.16706465	         73.92326138	         58.49460663	        -24.61107402	          5.96776680	
          0.22297012	         -4.48193053	          6.30094995	         -6.50367262	          1.97241544	          0.99958511	          0.31377653	          5.44915619	        -12.83489459	          7.56041469	        -94.11105294	        -20.80776754	        -15.18181826	        -10.47399694	         55.23914969	         -2.32145646	         -0.16700652	        -32.81575797	        -22.41133326	        -30.12944352	          1.99980542	        -20.98472321	        -10.90868975	          9.77283101	         45.65874318	        -22.46468172	        -12.03667037	         94.76562931	         89.44751692	        -18.26989856	          5.91943784	        -52.08207697	        -16.92709198	        -12.73168321	         74.97565373	         59.09892213	        -24.76531276	          5.92207046	
          0.22297012	         -4.48193053	          6.30094995	         -6.50367262	          1.97241544	          0.99958511	          0.31377653	          5.44915619	        -12.83489459	          7.56041469	        -94.11105294	        -20.80776754	        -15.18181826	        -10.47399694	         55.23914969	         -2.32145646	         -0.16700652	        -32.81575797	        -22.41133326	        -30.12944352	          1.99980542	        -20.98472321	        -10.90868975	          9.77283101	         45.65874318	        -22.46468172	        -12.03667037	         94.76562931	         89.44751692	        -18.26989856	          5.91943784	        -52.08207697	        -16.92709198	        -12.73168321	         74.97565373	         59.09892213	        -24.76531276	          5.92207046	
          0.22361735	         -4.51156015	          6.27067737	         -6.33783692	          1.98010546	          0.99976899	          0.31372713	          5.70250728	        -12.76651884	          7.46608112	        -94.50643762	        -20.63102208	        -15.22649682	        -10.47373210	         54.94606033	         -2.17281902	          0.01405019	        -32.50609890	        -22.50758355	        -30.32224408	          1.72002859	        -20.97955845	        -10.89631438	          9.74555610	         44.79397652	        -22.72201853	        -12.19714991	         94.46289873	         89.47902251	        -18.34643556	          5.89948148	        -51.70172713	        -17.21555365	        -12.96257501	         75.43483870	         59.36731828	        -24.82910353	          5.90211438	
          0.22566230	         -4.61299467	          6.17168102	         -5.81394996	          2.00441339	          1.00030486	          0.31355919	          6.53223080	        -12.55441923	          7.16949550	        -95.75562477	        -20.05822101	        -15.36825474	        -10.45869618	         54.01730785	         -1.72038326	          0.56701990	        -31.55178179	        -22.82079633	        -30.90535354	          0.95018098	        -20.94929060	        -10.84752678	          9.65964205	         42.06239186	        -23.49137162	        -12.65707495	         93.44768481	         89.57770813	        -18.57881127	          5.83642702	        -50.43793899	        -18.12675310	        -13.62412150	         76.88696018	         60.23335621	        -25.01568279	          5.83905937	
          0.22714438	         -4.69355627	          6.09686087	         -5.43425560	          2.02203940	          1.00064975	          0.31342699	          7.16084680	        -12.40461971	          6.95600530	        -96.66065721	        -19.62835859	        -15.47298642	        -10.43772997	         53.34101298	         -1.40915599	          0.94622674	        -30.88098914	        -23.05574559	        -31.29639996	          0.50532956	        -20.91451567	        -10.80328090	          9.59740749	         40.08682219	        -23.99869405	        -12.96166021	         92.66277242	         89.64841735	        -18.73721791	          5.79072920	        -49.46069133	        -18.78719543	        -14.03143311	         77.94043348	         60.87887922	        -25.13594955	          5.79336320	
          0.22714438	         -4.69355627	          6.09686087	         -5.43425560	          2.02203940	          1.00064975	          0.31342699	          7.16084680	        -12.40461971	          6.95600530	        -96.66065721	        -19.62835859	        -15.47298642	        -10.43772997	         53.34101298	         -1.40915599	          0.94622674	        -30.88098914	        -23.05574559	        -31.29639996	          0.50532956	        -20.91451567	        -10.80328090	          9.59740749	         40.08682219	        -23.99869405	        -12.96166021	         92.66277242	         89.64841735	        -18.73721791	          5.79072920	        -49.46069133	        -18.78719543	        -14.03143311	         77.94043348	         60.87887922	        -25.13594955	          5.79336320	
